<?xml version="1.0" standalone="no"?>
<!DOCTYPE svg PUBLIC "-//W3C//DTD SVG 20010904//EN"
 "http://www.w3.org/TR/2001/REC-SVG-20010904/DTD/svg10.dtd">
<svg version="1.0" xmlns="http://www.w3.org/2000/svg"
 width="260.000000pt" height="260.000000pt" viewBox="0 0 260.000000 260.000000"
 preserveAspectRatio="xMidYMid meet">
<metadata>
Created by potrace 1.11, written by Peter Selinger 2001-2013
</metadata>
<g transform="translate(0.000000,260.000000) scale(0.100000,-0.100000)"
fill="#000000" stroke="none">
<path d="M1257 2426 c4 -5 -1 -7 -9 -3 -17 6 -19 -16 -3 -30 4 -4 5 -2 1 5
-10 17 5 15 29 -5 16 -12 17 -14 3 -10 -12 4 -21 -1 -28 -14 -6 -11 -15 -17
-20 -14 -4 3 -6 -4 -3 -15 5 -18 -5 -25 -30 -21 -5 1 -6 -3 -2 -8 3 -6 12 -8
19 -5 8 3 17 0 22 -7 4 -7 3 -10 -4 -5 -6 3 -13 2 -17 -4 -3 -5 0 -10 7 -11 7
0 3 -4 -9 -9 -13 -5 -23 -15 -23 -21 0 -8 4 -8 15 1 9 7 18 10 22 6 3 -3 1 -6
-6 -6 -7 0 -10 -4 -7 -9 10 -15 -34 -7 -45 9 -8 11 -9 9 -4 -9 5 -16 4 -21 -4
-17 -6 4 -11 2 -11 -4 0 -6 11 -8 24 -6 19 3 23 1 19 -11 -4 -10 -8 -11 -13
-3 -5 8 -11 7 -22 -4 -9 -8 -18 -12 -21 -9 -4 3 -5 -4 -2 -15 2 -13 -3 -26
-13 -32 -10 -5 -12 -10 -4 -10 7 0 11 -12 10 -32 -2 -22 1 -32 9 -31 7 2 10
-4 6 -13 -5 -13 -7 -13 -14 -2 -8 12 -13 4 -10 -15 1 -5 -2 -6 -7 -3 -4 3 -21
-4 -38 -15 -16 -10 -23 -19 -16 -19 7 0 10 -5 6 -12 -4 -7 -3 -8 5 -4 6 4 8
12 5 18 -5 7 -2 8 6 3 8 -5 11 -4 7 2 -3 5 0 10 7 10 7 0 13 -6 13 -13 0 -7
-4 -11 -8 -9 -9 6 -31 -20 -23 -27 3 -3 -3 -5 -13 -4 -11 0 -17 -4 -14 -14 2
-8 3 -23 3 -33 0 -10 4 -15 10 -11 7 4 8 2 4 -4 -4 -6 -13 -9 -20 -6 -8 3 -17
0 -22 -7 -4 -7 -3 -10 4 -5 6 3 14 1 18 -5 4 -7 3 -9 -3 -6 -5 3 -17 -3 -26
-14 -9 -10 -14 -19 -12 -19 3 0 -1 -12 -8 -27 -8 -16 -13 -36 -12 -46 2 -9 -1
-15 -5 -12 -5 3 -7 14 -5 25 4 21 -10 36 -19 21 -4 -5 -2 -12 4 -16 6 -4 8
-10 5 -15 -3 -5 -1 -18 5 -29 7 -14 7 -22 -2 -27 -7 -4 -8 -3 -4 4 4 7 2 12
-4 12 -6 0 -9 3 -7 8 3 4 0 16 -4 27 -8 18 -9 18 -5 -3 4 -19 1 -22 -12 -18
-15 5 -15 4 1 -8 9 -7 17 -18 17 -25 0 -6 5 -11 12 -11 6 0 9 -2 6 -5 -9 -10
-38 7 -31 18 3 6 1 7 -6 3 -9 -6 -9 -11 0 -22 10 -13 8 -14 -16 -10 -26 5 -26
4 -11 -13 21 -23 20 -32 -1 -24 -10 3 -15 3 -11 -2 4 -4 2 -15 -4 -23 -16 -18
-19 -40 -7 -48 5 -3 9 -10 9 -16 0 -7 -5 -6 -15 2 -8 6 -19 9 -24 6 -14 -9 -9
-43 6 -43 10 0 10 4 1 14 -6 7 -8 16 -4 20 8 8 13 2 18 -22 2 -16 -2 -20 -24
-20 -26 1 -27 0 -13 -22 18 -27 13 -30 -9 -7 -11 10 -16 11 -16 3 0 -6 8 -18
18 -25 16 -12 15 -13 -6 -9 -12 2 -20 0 -17 -5 3 -5 1 -11 -4 -15 -6 -3 -8
-12 -5 -20 6 -16 24 -11 24 6 0 6 -5 7 -12 3 -7 -4 -8 -3 -4 5 8 12 26 6 26
-9 0 -5 -7 -16 -17 -25 -9 -10 -12 -20 -7 -23 6 -4 3 -14 -7 -24 -14 -13 -18
-14 -23 -3 -3 8 -1 17 5 21 6 3 8 13 5 21 -4 9 -2 11 6 7 7 -4 8 -3 4 4 -10
16 -27 15 -25 0 3 -27 -1 -39 -13 -32 -7 5 -8 3 -2 -7 18 -29 12 -43 -7 -19
-19 23 -19 23 -9 2 12 -25 5 -46 -13 -35 -8 4 -7 1 1 -9 7 -9 15 -29 17 -45 2
-15 2 -22 -1 -15 -3 6 -11 9 -17 5 -7 -4 -7 -1 1 9 10 13 10 18 1 24 -7 4 -9
3 -6 -3 4 -5 -3 -20 -14 -31 -11 -12 -16 -22 -10 -22 5 0 7 -9 4 -20 -3 -11
-9 -17 -14 -14 -5 3 -7 10 -4 15 4 5 1 9 -4 9 -14 0 -14 -13 1 -28 14 -14 20
-45 8 -37 -12 7 -28 -26 -23 -45 3 -8 -1 -6 -10 5 -8 11 -19 17 -23 12 -4 -4
-2 -7 5 -7 7 0 9 -5 6 -10 -4 -6 -10 -8 -14 -6 -4 3 -8 -1 -8 -8 0 -7 6 -13
13 -13 7 0 11 4 8 9 -3 4 3 5 12 1 13 -5 9 -10 -20 -25 -20 -10 -36 -21 -36
-24 0 -3 3 -3 8 0 4 2 16 -3 27 -11 19 -15 19 -15 -4 -8 -18 5 -22 4 -16 -5 5
-9 4 -11 -4 -6 -6 4 -23 -2 -37 -13 -15 -12 -22 -21 -17 -21 5 0 14 5 20 11 7
7 12 6 16 -5 4 -9 1 -15 -6 -13 -6 1 -13 -9 -15 -22 -3 -16 0 -21 9 -16 8 5
10 4 5 -4 -5 -7 -16 -9 -28 -5 -18 5 -19 4 -7 -9 8 -8 21 -12 29 -10 10 3 9 0
-3 -7 -9 -6 -15 -15 -12 -20 3 -5 -3 -14 -14 -20 -13 -6 -18 -17 -15 -28 5
-13 4 -14 -4 -3 -7 9 -12 10 -16 2 -4 -6 -12 -9 -17 -6 -5 3 -6 -2 -2 -11 4
-10 2 -15 -3 -11 -6 3 -10 -5 -10 -18 0 -13 4 -21 8 -19 5 3 6 10 3 15 -4 5
-1 9 4 9 18 0 12 -18 -11 -35 -23 -16 -23 -16 -3 -32 20 -15 20 -15 -2 -9 -12
4 -24 2 -28 -4 -4 -6 -1 -9 6 -8 7 2 14 -5 15 -15 1 -13 1 -13 -3 -2 -4 13 -9
11 -29 -10 -25 -27 -33 -52 -12 -39 7 4 8 3 4 -5 -12 -19 -38 8 -31 33 5 19 5
19 -5 3 -8 -13 -7 -22 4 -38 8 -12 12 -28 9 -37 -5 -11 -3 -13 8 -7 8 5 11 4
6 -1 -4 -4 -18 -9 -30 -9 -12 0 -21 -6 -19 -13 1 -7 -5 -15 -13 -18 -8 -3 -12
-11 -9 -16 4 -6 10 -5 15 3 7 12 9 12 9 0 0 -8 8 -24 17 -35 10 -12 11 -15 3
-8 -19 17 -33 15 -26 -3 3 -8 2 -14 -2 -14 -18 3 -26 -2 -15 -9 10 -7 10 -12
0 -26 -12 -16 -13 -15 -12 6 1 13 7 33 13 45 9 17 9 22 -3 27 -8 3 -17 0 -21
-6 -5 -7 -2 -8 6 -3 10 6 12 4 7 -9 -4 -10 -7 -20 -7 -23 0 -3 -8 1 -18 8 -16
13 -16 13 0 -7 23 -26 23 -33 1 -29 -10 1 -12 0 -5 -2 10 -4 10 -8 1 -19 -6
-7 -15 -11 -20 -8 -5 3 -9 1 -9 -5 0 -5 9 -9 19 -8 11 0 17 5 14 11 -3 5 -1 6
6 2 13 -9 5 -26 -12 -26 -7 0 -13 -8 -14 -17 -3 -36 -10 -57 -21 -61 -7 -2
-12 -8 -12 -13 0 -6 5 -7 12 -3 6 4 8 3 5 -4 -8 -11 -25 -11 -44 1 -7 5 -13 4
-13 -1 0 -6 7 -12 15 -16 8 -3 15 -11 15 -18 0 -10 -2 -10 -9 1 -7 10 -10 10
-16 1 -4 -7 -2 -16 5 -20 10 -6 9 -9 -1 -13 -10 -4 -10 -6 -1 -6 9 -1 10 -5 0
-20 -6 -11 -19 -17 -27 -14 -14 4 -14 4 -1 -6 20 -14 528 -13 537 2 4 6 1 7
-7 2 -10 -6 -12 -4 -7 8 4 10 2 28 -3 41 -8 23 1 43 23 45 15 2 11 14 -6 17
-33 5 -32 14 1 10 17 -2 29 1 26 5 -3 5 -1 9 5 9 6 0 8 7 5 15 -4 8 -10 12
-15 9 -5 -3 -7 -9 -5 -13 3 -4 -1 -8 -9 -8 -10 0 -12 4 -5 12 5 7 6 15 2 19
-4 4 0 6 8 4 8 -2 14 2 13 9 -2 7 4 10 12 7 8 -4 15 -10 15 -16 0 -5 -5 -6
-12 -2 -7 4 -8 3 -4 -5 8 -13 26 -6 26 11 0 6 -8 17 -17 24 -17 13 -17 14 0 8
19 -7 24 11 5 20 -7 3 -4 4 7 3 12 -1 24 7 32 23 13 28 7 74 -9 64 -5 -4 -5
-11 1 -18 16 -19 2 -52 -22 -53 -20 -2 -20 -1 -4 8 9 6 17 15 17 20 0 6 -6 7
-12 3 -10 -6 -10 -5 -1 8 7 8 11 17 8 20 -3 2 9 18 26 34 17 16 29 23 27 15
-2 -7 5 -15 16 -16 16 -3 15 -1 -5 21 -17 18 -25 21 -32 12 -6 -10 -7 -9 -4 2
2 8 9 15 15 15 19 0 27 16 12 25 -9 6 -10 10 -3 10 20 0 26 -20 11 -38 -11
-15 -11 -15 3 -5 9 7 19 9 24 5 4 -4 2 3 -4 16 -15 28 -8 52 15 52 14 0 14 3
4 15 -11 13 -10 14 6 9 34 -12 36 -16 17 -31 -16 -13 -16 -13 5 -3 13 6 25 17
28 25 3 8 12 11 20 8 8 -3 22 1 32 8 15 13 16 12 3 -3 -9 -13 -10 -18 -2 -18
7 0 9 -5 5 -12 -4 -7 -3 -8 5 -4 6 4 9 12 6 17 -4 5 6 10 22 11 15 0 37 2 48
2 11 1 26 5 33 9 7 5 19 4 26 -2 9 -7 16 -7 24 1 8 8 12 9 12 1 0 -14 -18 -20
-56 -18 -24 1 -31 -2 -27 -13 3 -7 9 -10 12 -5 3 4 15 8 26 7 11 0 28 3 38 8
11 6 17 5 17 -4 0 -8 5 -6 11 5 5 9 7 23 4 30 -4 6 0 4 8 -5 8 -10 17 -15 21
-11 10 11 37 12 30 2 -3 -5 0 -9 6 -9 6 0 8 -6 4 -12 -4 -8 -3 -10 2 -5 5 5 9
13 9 19 0 17 33 18 39 2 4 -11 1 -12 -13 -4 -16 8 -18 7 -14 -11 3 -11 9 -16
12 -11 3 5 14 8 23 6 10 -1 21 3 25 8 3 6 1 8 -4 5 -6 -4 -14 0 -17 8 -4 12
-2 13 13 6 12 -7 22 -6 31 2 7 7 10 7 7 2 -3 -6 9 -18 26 -28 l32 -17 -25 21
c-25 21 -25 22 -2 15 14 -5 29 -3 39 6 9 7 14 8 10 2 -4 -6 5 -16 21 -23 26
-11 26 -11 7 5 -20 16 -20 16 3 9 14 -4 30 -1 40 7 15 12 16 11 3 -5 -8 -9
-11 -20 -7 -24 3 -3 6 -1 6 6 0 8 6 11 16 7 8 -3 13 -2 9 3 -3 5 2 8 11 7 18
-3 35 -26 28 -38 -3 -4 0 -8 5 -8 13 0 13 2 2 33 -7 17 -6 24 4 24 7 0 11 -6
8 -13 -2 -7 0 -21 7 -31 10 -16 10 -15 6 7 -3 14 -3 20 0 13 3 -7 13 -9 22 -6
15 4 15 3 2 -6 -13 -10 -8 -15 12 -12 10 1 -2 -30 -21 -54 -9 -11 -12 -17 -7
-13 5 4 15 0 23 -10 8 -9 12 -11 8 -5 -4 9 -1 11 11 6 15 -5 15 -7 0 -15 -9
-5 -22 -6 -29 -2 -6 4 -9 4 -5 -1 4 -4 4 -13 -2 -19 -6 -8 -2 -12 13 -13 17
-2 18 0 7 7 -12 7 -10 9 6 8 12 -1 21 -7 19 -13 -5 -22 -19 -50 -29 -58 -7 -5
-3 -7 10 -4 12 2 21 -1 21 -8 0 -7 -6 -11 -14 -8 -9 4 -11 0 -7 -11 3 -9 10
-14 14 -11 11 7 6 -22 -5 -32 -4 -4 -5 -3 -2 3 3 6 -1 11 -10 11 -12 0 -11 -4
7 -19 12 -10 26 -15 31 -12 15 9 10 -5 -9 -24 -10 -10 -25 -17 -33 -14 -8 2
-5 -4 6 -13 16 -12 17 -18 7 -24 -11 -7 -11 -9 2 -14 9 -4 16 -12 16 -19 0 -9
-3 -9 -12 0 -7 7 -17 12 -23 12 -5 0 -2 -5 8 -11 9 -6 14 -16 11 -22 -4 -7 -4
-9 1 -5 12 11 38 -30 29 -45 -5 -8 -2 -8 9 2 12 9 17 10 17 2 0 -8 69 -11 254
-11 212 1 255 4 260 16 3 8 1 14 -5 14 -6 0 -7 5 -4 10 3 6 1 10 -5 10 -7 0
-5 6 4 15 8 9 12 23 9 32 -5 12 -3 14 7 8 9 -5 11 -4 6 4 -4 6 -4 18 1 24 4 7
0 4 -10 -6 -15 -17 -17 -17 -17 -3 0 11 -5 14 -12 10 -7 -4 -8 -3 -4 4 4 7 15
12 24 12 14 0 15 2 2 9 -8 6 -17 8 -21 6 -3 -3 -6 5 -5 18 1 13 -4 21 -12 19
-8 -1 -11 1 -8 6 3 5 19 8 36 7 37 -2 27 12 -12 17 -15 2 -31 7 -35 12 -4 4
-2 6 6 4 7 -1 15 2 18 9 2 6 -4 13 -14 16 -17 4 -17 5 0 6 16 1 16 4 4 29 -8
15 -12 33 -9 41 3 9 0 11 -9 6 -8 -5 -11 -4 -6 0 4 5 -1 18 -10 29 -18 21 -18
21 5 2 12 -11 22 -14 22 -8 0 6 -12 20 -27 32 l-28 21 33 -16 c17 -8 32 -14
33 -13 8 29 5 35 -12 31 -10 -3 -19 0 -19 6 0 6 -8 11 -17 12 -12 0 -13 2 -5
6 7 3 20 -1 28 -8 12 -10 15 -10 12 2 -2 8 3 13 10 11 8 -1 11 2 8 6 -3 5 -17
8 -31 6 -20 -2 -24 1 -16 10 7 9 7 16 -1 24 -9 9 -9 15 1 24 10 11 11 10 8 -2
-2 -8 -2 -12 0 -7 3 4 10 4 16 0 7 -3 4 3 -5 14 -10 11 -18 25 -18 32 0 7 -4
10 -10 6 -5 -3 -7 -13 -4 -23 5 -14 4 -14 -4 -3 -12 17 -5 42 12 40 6 -1 18
-1 26 0 12 1 12 4 -3 12 -9 5 -21 7 -27 4 -5 -3 -7 4 -5 16 3 12 1 27 -3 33
-6 10 -8 20 -11 67 0 11 -5 18 -9 15 -4 -2 -9 5 -9 16 -2 20 -1 20 13 2 9 -11
13 -13 9 -7 -4 9 -1 11 9 7 9 -3 16 -1 16 5 0 6 -5 10 -11 9 -6 -2 -14 3 -17
11 -3 10 0 11 9 5 12 -6 12 -5 1 8 -8 10 -9 19 -3 22 5 3 12 1 14 -4 3 -6 4
-5 3 2 -1 7 -17 23 -34 34 -25 17 -28 23 -16 28 8 3 12 2 9 -4 -3 -6 -1 -10 5
-10 7 0 10 7 6 15 -3 8 2 19 12 24 9 6 12 11 7 11 -6 0 -16 -5 -22 -11 -7 -7
-12 -6 -17 6 -3 9 -2 13 3 10 5 -3 13 0 17 6 4 8 3 9 -4 5 -7 -4 -12 -2 -12 3
0 6 6 11 13 11 8 0 8 3 1 8 -6 4 -13 15 -17 25 -4 10 -12 15 -18 11 -8 -5 -8
-9 1 -14 7 -4 9 -13 5 -20 -6 -9 -4 -11 5 -5 9 5 11 4 6 -4 -6 -9 -11 -9 -22
0 -7 6 -12 15 -9 19 3 5 -1 11 -7 13 -10 4 -10 6 0 6 7 1 10 6 6 13 -4 7 -3 8
4 4 7 -4 12 -1 13 6 0 7 2 21 4 31 2 9 -1 15 -6 11 -15 -9 -10 13 6 26 13 11
13 16 -1 42 -9 16 -17 37 -19 46 -2 10 -7 26 -11 37 -7 17 -6 18 8 7 13 -10
18 -10 24 -1 4 8 3 9 -5 5 -6 -4 -14 0 -17 9 -5 12 -9 13 -20 4 -8 -7 -17 -9
-21 -5 -3 3 -1 6 5 6 7 0 12 5 12 11 0 5 -6 7 -12 3 -10 -6 -10 -5 0 8 10 12
10 18 -2 27 -12 10 -13 18 -4 39 7 15 19 33 27 41 14 12 14 13 -1 8 -10 -4
-18 -2 -18 3 0 6 5 10 12 10 6 0 9 2 6 5 -8 9 -38 -6 -32 -16 3 -5 0 -9 -6 -9
-7 0 -9 6 -6 13 3 6 9 20 12 30 4 9 10 17 16 17 5 0 -5 14 -22 30 -17 17 -26
30 -20 30 18 0 10 18 -11 23 -17 5 -19 9 -10 26 6 11 8 27 5 35 -3 9 -2 16 4
16 11 0 10 -40 -3 -59 -5 -9 -2 -12 11 -9 12 2 18 11 16 23 -2 11 -4 29 -5 40
-1 12 -9 19 -20 19 -22 -2 -21 1 4 24 19 18 19 21 4 36 -9 9 -21 13 -27 10 -7
-4 -8 -2 -4 4 4 6 14 8 23 5 10 -4 14 -2 9 5 -3 6 -2 14 4 17 8 5 7 11 -1 21
-6 8 -8 14 -4 14 4 0 3 6 -2 13 -5 6 -8 22 -7 34 0 12 -2 20 -7 17 -4 -2 -6
-12 -3 -22 5 -13 4 -14 -4 -3 -6 8 -6 25 -2 41 4 15 4 33 0 40 -5 7 -6 19 -3
27 3 7 0 13 -7 13 -6 0 -9 4 -6 9 3 5 -1 14 -9 21 -10 9 -15 9 -15 1 0 -6 -5
-11 -12 -11 -9 0 -9 3 0 12 13 13 16 32 4 24 -4 -2 -8 6 -8 19 0 13 4 21 8 19
4 -3 8 2 8 11 0 12 -5 15 -17 11 -16 -5 -16 -5 -2 7 13 10 14 15 4 24 -7 7
-17 9 -21 5 -5 -4 -3 0 3 8 7 9 10 28 9 43 -2 15 1 27 6 27 5 0 6 5 3 10 -4 6
-11 7 -17 4 -7 -4 -8 -2 -4 4 4 6 14 9 24 6 10 -4 13 -2 7 3 -14 11 -20 67 -7
59 6 -3 13 -3 16 2 2 4 -5 9 -17 9 -12 1 -23 7 -25 13 -2 5 -8 7 -14 4 -6 -4
-6 2 1 14 6 11 11 26 11 32 0 14 -627 14 -635 -1 -4 -5 -12 -9 -18 -9 -7 0 -6
4 3 10 12 7 10 9 -7 7 -12 0 -19 -5 -16 -11z m28 -24 c-3 -3 -11 0 -18 7 -9
10 -8 11 6 5 10 -3 15 -9 12 -12z m625 4 c0 -2 -7 -7 -16 -10 -8 -3 -12 -2 -9
4 6 10 25 14 25 6z m25 -54 c-3 -3 -11 0 -18 7 -9 10 -8 11 6 5 10 -3 15 -9
12 -12z m-681 -32 c-6 -6 -10 -3 -10 10 0 13 4 16 10 10 7 -7 7 -13 0 -20z
m-90 -148 c-6 -4 -10 -17 -9 -29 1 -14 -3 -19 -12 -16 -10 4 -11 9 -2 19 6 8
8 14 4 14 -4 0 -2 7 5 15 7 9 15 13 19 10 3 -3 1 -9 -5 -13z m-14 -72 c0 -5
-5 -10 -11 -10 -5 0 -7 5 -4 10 3 6 8 10 11 10 2 0 4 -4 4 -10z m835 -49 c-3
-5 -1 -12 5 -16 6 -4 8 -11 4 -16 -3 -5 -10 -6 -16 -3 -6 4 -9 1 -6 -7 3 -8
10 -15 16 -15 23 -3 24 -4 13 -17 -6 -8 -8 -17 -4 -20 3 -4 1 -7 -6 -7 -7 0
-9 -5 -5 -12 4 -7 3 -9 -2 -5 -4 4 -9 20 -9 35 0 16 -6 26 -13 24 -10 -2 -10
2 0 20 7 13 13 26 14 31 3 15 4 17 10 17 3 0 3 -4 -1 -9z m-507 -131 c-7 -10
-14 -17 -17 -15 -4 4 18 35 25 35 2 0 -1 -9 -8 -20z m33 -21 c-23 -19 -23 -21
-7 -37 17 -16 17 -16 14 2 -2 10 4 21 12 23 9 3 11 1 5 -4 -6 -4 -10 -18 -9
-31 1 -12 -3 -25 -8 -28 -4 -3 -6 -10 -2 -15 3 -6 11 -3 18 7 10 13 15 14 21
4 5 -9 4 -11 -3 -6 -7 4 -12 1 -12 -8 0 -9 -5 -16 -11 -16 -5 0 -7 -5 -4 -10
4 -6 12 -7 18 -3 8 4 7 1 -1 -9 -10 -13 -10 -17 0 -20 8 -3 7 -6 -4 -11 -13
-4 -16 -1 -13 15 3 11 1 18 -2 14 -11 -11 -12 -66 -2 -66 6 0 7 -6 3 -12 -4
-7 -3 -9 1 -5 13 11 15 38 3 31 -7 -4 -8 -2 -4 4 10 16 29 15 23 0 -2 -7 3
-22 12 -33 15 -19 15 -19 -3 -5 -18 14 -19 13 -13 -3 4 -11 3 -16 -3 -12 -13
8 -13 -1 -1 -24 7 -12 5 -26 -5 -46 -8 -15 -12 -30 -9 -33 3 -3 5 0 5 7 0 7 5
9 12 5 7 -4 8 -3 4 4 -5 8 -1 10 10 5 11 -4 13 -8 6 -11 -7 -2 -12 -13 -12
-24 0 -18 2 -19 18 -7 16 13 16 12 3 -4 -14 -18 -16 -18 -28 -1 -7 10 -13 13
-13 7 0 -7 4 -14 9 -17 10 -7 9 -25 -2 -43 -5 -8 -4 -13 2 -13 10 0 15 14 12
33 -2 14 17 7 23 -9 3 -8 2 -12 -4 -9 -6 3 -10 -1 -10 -9 0 -11 6 -13 18 -9
16 6 16 6 0 -10 -18 -19 -33 -23 -23 -7 3 6 -1 7 -9 4 -9 -3 -16 -10 -16 -16
0 -5 4 -7 9 -3 5 3 16 -1 24 -9 8 -8 16 -13 19 -11 2 2 5 -5 5 -16 2 -20 2
-20 -17 1 -18 21 -19 21 -17 2 0 -12 5 -18 9 -16 4 3 8 0 8 -5 0 -10 -14 -15
-33 -12 -5 1 -6 -3 -2 -9 4 -7 13 -6 27 1 18 10 20 9 14 -6 -4 -12 -2 -16 7
-12 10 4 13 -5 11 -35 -2 -35 -1 -38 14 -26 9 7 14 8 10 4 -4 -5 -2 -16 5 -24
10 -13 9 -14 -3 -7 -8 6 -19 10 -25 10 -5 0 -9 8 -9 17 1 10 -4 14 -12 11 -12
-4 -12 -8 -2 -20 16 -20 19 -43 5 -43 -7 -1 -1 -7 13 -14 14 -8 28 -12 32 -10
3 2 10 -1 14 -7 5 -8 3 -9 -5 -5 -8 5 -14 0 -18 -13 -7 -26 -12 -26 -30 -3
-13 15 -13 15 -3 -5 11 -25 25 -29 35 -13 3 6 12 10 18 9 9 0 9 -2 0 -6 -7 -2
-13 -9 -13 -14 0 -6 5 -7 12 -3 6 4 8 3 4 -4 -3 -5 -1 -12 6 -14 8 -3 6 -7 -5
-11 -9 -3 -19 -1 -23 5 -5 7 -2 8 6 3 8 -5 11 -4 6 3 -8 13 -36 5 -36 -10 0
-5 4 -7 9 -4 5 3 11 -8 13 -24 4 -23 2 -27 -9 -19 -7 6 -10 16 -6 23 3 6 2 7
-3 3 -5 -5 -9 -16 -9 -25 0 -9 -6 -18 -12 -18 -7 -1 -18 -2 -24 -3 -5 0 -7 -6
-3 -13 4 -7 3 -8 -5 -4 -6 4 -9 11 -6 16 3 4 -5 10 -16 13 -13 4 -18 10 -13
18 5 8 3 10 -5 5 -9 -6 -8 -13 6 -28 18 -21 18 -21 -4 -9 -21 11 -27 8 -24
-12 1 -5 -3 -6 -9 -2 -6 3 -8 11 -5 16 9 14 -25 23 -38 10 -9 -9 -8 -11 6 -6
10 5 17 2 17 -6 0 -7 -3 -9 -7 -6 -3 4 -13 1 -22 -5 -9 -7 -13 -8 -9 -4 14 16
-12 37 -32 26 -21 -11 -36 2 -24 22 4 7 3 8 -5 4 -6 -4 -9 -16 -6 -26 3 -10 0
-22 -6 -26 -7 -4 -9 -3 -6 2 3 6 2 16 -4 24 -6 10 -9 11 -9 3 0 -7 -5 -13 -11
-13 -5 0 -8 4 -5 9 3 4 -7 13 -22 20 -22 9 -24 9 -12 -1 17 -14 26 -43 11 -34
-5 4 -12 0 -15 -6 -3 -7 -4 -4 -3 7 2 16 -4 20 -30 22 -24 1 -30 -2 -26 -13 4
-10 0 -12 -11 -8 -9 3 -14 10 -11 14 3 4 -1 10 -9 13 -14 6 -16 -9 -4 -29 4
-6 1 -11 -7 -11 -8 0 -13 2 -10 5 2 3 -1 14 -7 26 -17 32 -18 78 -1 72 8 -4
11 -1 8 5 -20 31 -42 -28 -24 -63 6 -10 5 -19 -1 -23 -6 -4 -10 -3 -9 2 1 4 1
15 -1 23 -1 11 -3 10 -9 -4 -4 -11 -15 -20 -24 -22 -10 -1 -15 2 -11 7 3 5 9
7 14 4 13 -8 20 38 7 54 -11 14 -10 14 6 2 19 -15 22 -9 7 19 -7 13 -7 21 2
26 7 4 8 3 4 -4 -8 -14 -4 -15 18 -6 15 6 15 8 -1 20 -14 10 -14 12 -3 11 8
-2 21 -6 29 -11 9 -6 9 -2 -3 16 -13 21 -14 27 -1 51 8 15 12 35 9 45 -5 16
-5 16 6 0 12 -20 35 -24 45 -8 3 5 0 7 -8 4 -8 -3 -17 1 -20 9 -4 11 2 13 26
11 23 -3 28 -1 17 5 -8 6 -17 8 -21 5 -4 -2 -11 1 -15 7 -4 7 -3 9 4 5 6 -3
14 -2 17 4 5 8 12 7 23 -2 15 -12 16 -11 3 5 -8 10 -20 16 -27 13 -7 -3 -16
-1 -19 5 -4 5 -3 9 2 8 26 -5 35 3 31 26 -3 14 -1 25 4 25 5 0 7 4 3 9 -3 5
-1 12 5 16 6 4 8 10 5 15 -3 4 4 6 15 3 11 -3 17 -9 14 -14 -3 -5 -10 -6 -16
-3 -7 5 -8 2 -3 -6 5 -8 4 -11 -1 -7 -6 3 -11 -3 -11 -15 -2 -19 -1 -18 19 4
11 12 25 22 31 20 6 -2 5 4 -2 12 -11 13 -10 17 3 22 15 6 15 8 -1 20 -17 14
-17 14 2 12 17 -3 19 2 16 36 -1 23 1 36 7 32 16 -10 36 30 22 47 -1 1 -3 12
-4 24 -2 14 2 19 11 16 10 -4 11 -9 2 -19 -9 -12 -9 -13 4 -8 9 3 17 13 19 22
5 23 -2 53 -12 47 -4 -2 4 16 16 42 13 25 21 49 18 54 -3 5 3 6 13 3 17 -5 17
-5 0 9 -16 13 -16 15 -2 21 9 3 13 11 9 17 -4 7 -3 9 4 5 6 -3 20 3 31 15 19
20 70 57 81 58 3 0 -6 -9 -19 -20z m512 -21 c-2 -4 1 -9 7 -13 6 -4 7 -11 4
-17 -4 -6 -13 4 -20 21 -8 18 -18 30 -24 26 -5 -3 -7 0 -4 9 5 12 8 12 23 -2
10 -9 16 -20 14 -24z m11 -86 c3 -5 -1 -9 -9 -9 -8 0 -12 4 -9 9 3 4 7 8 9 8
2 0 6 -4 9 -8z m-669 -130 c-3 -3 -11 0 -18 7 -9 10 -8 11 6 5 10 -3 15 -9 12
-12z m-448 -43 c-9 -6 -15 -14 -12 -19 3 -4 -1 -10 -9 -13 -9 -4 -13 0 -12 9
3 16 24 34 41 34 6 -1 2 -5 -8 -11z m414 -17 c-7 -2 -18 1 -23 6 -8 8 -4 9 13
5 13 -4 18 -8 10 -11z m239 4 c0 -3 -4 -8 -10 -11 -5 -3 -10 -1 -10 4 0 6 5
11 10 11 6 0 10 -2 10 -4z m-234 -23 c-11 -11 -48 -14 -41 -3 3 5 16 10 27 10
12 0 18 -3 14 -7z m722 -23 c-7 -10 -14 -18 -15 -16 -6 6 9 36 18 36 5 0 4 -9
-3 -20z m-754 -46 c6 -15 4 -15 -11 -3 -10 7 -20 15 -22 16 -2 2 3 3 11 3 9 0
19 -7 22 -16z m771 -14 c-3 -5 -12 -10 -18 -10 -7 0 -6 4 3 10 19 12 23 12 15
0z m-785 -25 c0 -12 -19 -12 -23 0 -4 9 -1 12 9 8 7 -3 14 -7 14 -8z m816
-158 c5 -29 10 -42 22 -55 14 -16 7 -32 -14 -32 -9 0 -12 -5 -8 -12 5 -7 3 -8
-6 -3 -10 6 -10 11 3 20 22 16 22 26 0 19 -11 -4 -14 -2 -8 3 13 10 18 33 7
33 -4 0 -8 11 -8 25 0 24 8 26 12 2z m-489 -9 c-3 -8 -6 -5 -6 6 -1 11 2 17 5
13 3 -3 4 -12 1 -19z m-833 -7 c4 -5 -4 -7 -16 -3 -16 4 -19 2 -13 -8 5 -9 4
-11 -4 -6 -6 4 -9 12 -6 17 8 12 32 12 39 0z m829 -64 c3 -8 0 -14 -7 -14 -7
0 -13 6 -13 14 0 7 4 13 8 13 4 0 9 -6 12 -13z m-876 -27 c8 -12 9 -21 3 -25
-6 -4 -9 -1 -8 7 2 7 -2 12 -8 11 -6 -1 -11 5 -11 13 0 20 10 18 24 -6z m1388
-30 c-3 -5 -13 -6 -21 -3 -12 4 -13 8 -3 14 15 9 32 2 24 -11z m-875 -131 c0
-5 -4 -7 -10 -4 -5 3 -10 1 -10 -6 0 -7 -3 -10 -6 -6 -8 7 4 27 17 27 5 0 9
-5 9 -11z m143 -4 c-3 -9 -8 -14 -10 -11 -3 3 -2 9 2 15 9 16 15 13 8 -4z
m-738 -5 c3 -6 -1 -7 -9 -4 -18 7 -21 14 -7 14 6 0 13 -4 16 -10z m1510 -43
c13 -10 15 -16 6 -21 -6 -4 -9 -11 -6 -16 3 -5 2 -11 -3 -14 -4 -2 -9 4 -9 15
-1 10 4 19 10 19 7 0 6 4 -3 9 -8 6 -18 7 -22 5 -4 -3 -8 0 -8 5 0 15 12 14
35 -2z m-1540 -9 c5 4 5 1 1 -6 -6 -10 -11 -10 -22 -1 -8 6 -14 14 -14 16 0 3
6 0 13 -6 8 -6 18 -7 22 -3z m-101 -194 c3 -8 2 -12 -4 -9 -6 3 -10 10 -10 16
0 14 7 11 14 -7z m446 -140 c0 -8 -5 -12 -10 -9 -6 4 -8 11 -5 16 9 14 15 11
15 -7z m747 -90 c-3 -3 -12 -4 -19 -1 -8 3 -5 6 6 6 11 1 17 -2 13 -5z m-1317
-15 c0 -5 6 -7 13 -3 9 6 9 5 0 -8 -7 -8 -10 -18 -6 -21 3 -4 1 -7 -5 -7 -7 0
-12 3 -13 8 0 4 -2 15 -4 25 -2 9 1 17 6 17 5 0 9 -5 9 -11z m-77 -214 c-3 -9
-8 -14 -10 -11 -3 3 -2 9 2 15 9 16 15 13 8 -4z m1417 -35 c-11 -7 -11 -10 -2
-10 7 0 10 -4 7 -10 -3 -5 0 -10 7 -11 9 0 10 -2 1 -5 -7 -3 -9 -12 -6 -20 3
-7 10 -11 16 -7 5 3 7 1 3 -5 -3 -5 -3 -12 1 -15 5 -2 2 -2 -4 -1 -7 2 -13 -1
-13 -5 0 -5 6 -12 13 -14 9 -4 9 -6 0 -6 -14 -1 -35 33 -26 42 3 4 2 12 -3 19
-8 11 -9 23 -5 51 0 4 7 7 14 7 8 0 7 -4 -3 -10z m534 -61 c-3 -5 -11 -9 -17
-8 -8 0 -8 2 1 6 10 4 10 8 0 21 -12 15 -11 16 4 3 10 -7 15 -17 12 -22z
m-1553 -51 c-11 -11 -13 -10 -8 3 3 9 1 22 -4 28 -5 6 -1 4 8 -4 14 -12 15
-17 4 -27z"/>
<path d="M1459 1857 c-7 -15 -15 -24 -19 -22 -4 3 -12 -1 -18 -8 -7 -8 -5 -16
6 -27 14 -13 15 -12 9 2 -4 12 -1 16 14 15 10 -1 19 -6 19 -12 0 -5 5 -3 10 5
5 8 10 12 11 8 1 -5 3 -12 4 -18 1 -5 3 -14 4 -20 0 -5 5 -10 10 -10 10 0 9
26 -2 36 -4 4 -2 12 3 19 7 8 2 19 -15 35 l-24 23 -12 -26z m41 -12 c7 -8 11
-15 9 -16 -2 -1 -16 -2 -31 -3 -23 -3 -26 0 -17 16 12 22 23 23 39 3z"/>
<path d="M1470 1842 c0 -5 7 -9 15 -9 8 0 12 4 9 9 -3 4 -9 8 -15 8 -5 0 -9
-4 -9 -8z"/>
<path d="M1470 1783 c0 -6 8 -17 18 -24 16 -13 16 -13 2 6 -8 11 -16 22 -17
24 -2 2 -3 0 -3 -6z"/>
<path d="M1405 1771 c-3 -5 -2 -12 3 -15 5 -3 9 1 9 9 0 17 -3 19 -12 6z"/>
<path d="M1380 1720 c0 -5 0 -12 0 -15 0 -12 14 -4 16 10 1 8 -2 15 -7 15 -5
0 -9 -4 -9 -10z"/>
<path d="M1246 1363 c-6 -14 -5 -15 5 -6 7 7 10 15 7 18 -3 3 -9 -2 -12 -12z"/>
<path d="M1555 1331 c4 -7 1 -20 -7 -29 -12 -16 -11 -16 6 -2 11 8 21 14 23
12 3 -2 7 -1 10 1 2 3 -5 11 -17 17 -16 9 -20 9 -15 1z"/>
<path d="M1169 1253 c-1 -1 -2 -6 -3 -10 -1 -5 -5 -13 -9 -19 -4 -7 1 -18 10
-25 9 -8 14 -9 10 -2 -4 6 -1 14 5 16 10 4 9 6 -1 6 -11 1 -11 5 2 19 15 16
15 19 2 19 -8 0 -16 -2 -16 -4z"/>
<path d="M1556 1072 c-3 -5 1 -9 9 -9 8 0 12 4 9 9 -3 4 -7 8 -9 8 -2 0 -6 -4
-9 -8z"/>
<path d="M1932 2401 c2 -7 7 -12 11 -12 12 1 9 15 -3 20 -7 2 -11 -2 -8 -8z"/>
<path d="M1963 2253 c-12 -26 -10 -56 5 -61 14 -4 15 7 3 27 -6 9 -6 22 0 33
5 10 7 18 5 18 -3 0 -9 -8 -13 -17z"/>
<path d="M1116 2222 c-3 -5 1 -9 9 -9 8 0 12 4 9 9 -3 4 -7 8 -9 8 -2 0 -6 -4
-9 -8z"/>
<path d="M1982 2160 c0 -14 2 -19 5 -12 2 6 2 18 0 25 -3 6 -5 1 -5 -13z"/>
<path d="M1965 2122 c-6 -6 26 -52 36 -52 5 0 9 5 9 11 0 5 -5 7 -11 4 -13 -9
-8 27 6 37 5 4 -1 6 -13 5 -13 -1 -25 -3 -27 -5z"/>
<path d="M1104 2082 c3 -13 -2 -26 -12 -32 -10 -5 -12 -10 -6 -10 20 0 32 24
23 45 -9 18 -9 18 -5 -3z"/>
<path d="M2015 2060 c-3 -5 -1 -10 4 -10 6 0 11 5 11 10 0 6 -2 10 -4 10 -3 0
-8 -4 -11 -10z"/>
<path d="M1030 1919 c0 -5 5 -7 10 -4 6 3 10 8 10 11 0 2 -4 4 -10 4 -5 0 -10
-5 -10 -11z"/>
<path d="M1005 1899 c-4 -6 -4 -13 -1 -16 3 -3 -2 -12 -12 -20 -16 -13 -16
-14 2 -5 11 5 20 19 21 31 2 23 -1 26 -10 10z"/>
<path d="M970 1829 c0 -15 18 -19 23 -6 3 8 -1 14 -9 14 -8 0 -14 -4 -14 -8z"/>
<path d="M2050 1760 c0 -5 5 -10 11 -10 5 0 7 5 4 10 -3 6 -8 10 -11 10 -2 0
-4 -4 -4 -10z"/>
<path d="M2070 1611 c0 -6 4 -12 8 -15 5 -3 9 1 9 9 0 8 -4 15 -9 15 -4 0 -8
-4 -8 -9z"/>
<path d="M2095 1491 c-3 -5 -2 -12 3 -15 5 -3 9 1 9 9 0 17 -3 19 -12 6z"/>
<path d="M2084 1461 c4 -6 2 -11 -5 -11 -8 0 -6 -6 4 -18 10 -10 15 -22 12
-25 -3 -4 -2 -4 3 -1 4 3 7 11 7 17 1 7 6 11 13 10 19 -4 14 3 -14 22 -15 9
-23 12 -20 6z"/>
<path d="M675 1160 c-3 -5 -11 -8 -18 -6 -7 1 -9 1 -4 -1 4 -3 4 -10 0 -16 -3
-7 3 -3 15 7 12 11 22 21 22 23 0 6 -9 3 -15 -7z"/>
<path d="M576 1023 c-6 -14 -5 -15 5 -6 7 7 10 15 7 18 -3 3 -9 -2 -12 -12z"/>
<path d="M540 891 c13 -10 8 -15 -12 -12 -4 0 -5 -6 -1 -15 5 -14 3 -15 -18
-5 -23 12 -23 11 -4 -4 18 -14 21 -14 31 0 6 8 14 12 17 9 3 -3 4 2 3 12 -2
10 -9 20 -17 22 -11 3 -11 1 1 -7z"/>
<path d="M2184 888 c-4 -6 -2 -14 4 -16 7 -2 9 -9 5 -15 -13 -21 -12 -38 3
-44 11 -4 12 -9 3 -19 -7 -9 -8 -14 -1 -14 18 0 21 29 4 39 -12 7 -13 10 -3
11 7 0 11 6 7 15 -3 8 0 15 7 15 7 0 4 5 -7 11 -15 9 -16 13 -5 20 9 6 10 9 2
9 -6 0 -15 -5 -19 -12z"/>
<path d="M2215 720 c3 -5 8 -10 11 -10 2 0 4 5 4 10 0 6 -5 10 -11 10 -5 0 -7
-4 -4 -10z"/>
<path d="M426 674 c-5 -14 -4 -15 9 -4 17 14 19 20 6 20 -5 0 -12 -7 -15 -16z"/>
<path d="M2213 655 c0 -8 4 -12 9 -9 4 3 8 9 8 15 0 5 -4 9 -8 9 -5 0 -9 -7
-9 -15z"/>
<path d="M1265 651 c-3 -6 -11 -8 -17 -5 -7 4 -8 2 -4 -4 4 -6 14 -8 23 -5 10
4 14 2 9 -5 -3 -6 -2 -13 3 -17 6 -3 8 4 6 16 -5 28 -11 33 -20 20z"/>
<path d="M1086 642 c-3 -5 1 -9 9 -9 8 0 12 4 9 9 -3 4 -7 8 -9 8 -2 0 -6 -4
-9 -8z"/>
<path d="M1396 633 c-6 -14 -5 -15 5 -6 7 7 10 15 7 18 -3 3 -9 -2 -12 -12z"/>
<path d="M393 595 c0 -8 4 -12 9 -9 5 3 6 10 3 15 -9 13 -12 11 -12 -6z"/>
<path d="M2237 533 c-4 -3 -2 -12 4 -20 9 -9 8 -13 0 -13 -8 0 -7 -8 2 -27 8
-16 13 -37 12 -49 -1 -16 3 -20 17 -16 17 4 27 23 11 21 -20 -3 -23 3 -13 21
8 16 8 20 -2 18 -7 -2 -13 6 -13 17 -1 11 -4 25 -8 32 -4 6 -1 14 5 16 7 3 8
6 2 6 -6 1 -14 -2 -17 -6z"/>
<path d="M845 510 c-3 -5 -1 -10 5 -10 6 0 8 -5 4 -12 -4 -7 -3 -8 4 -4 6 4 9
13 5 21 -6 18 -10 19 -18 5z"/>
<path d="M1700 480 c-9 -6 -10 -10 -3 -10 6 0 15 5 18 10 8 12 4 12 -15 0z"/>
<path d="M275 360 c3 -5 8 -10 11 -10 2 0 4 5 4 10 0 6 -5 10 -11 10 -5 0 -7
-4 -4 -10z"/>
<path d="M2267 355 c-4 -8 -3 -16 1 -19 4 -3 9 4 9 15 2 23 -3 25 -10 4z"/>
<path d="M254 338 c-5 -7 -2 -8 6 -3 10 6 12 4 7 -9 -4 -10 -7 -20 -7 -22 0
-3 -5 -2 -12 2 -7 4 -8 3 -4 -4 9 -15 43 4 43 24 0 17 -24 26 -33 12z"/>
<path d="M1690 342 c0 -4 10 -9 22 -9 18 -2 20 0 8 7 -18 12 -30 13 -30 2z"/>
<path d="M210 260 c0 -5 5 -10 11 -10 5 0 7 5 4 10 -3 6 -8 10 -11 10 -2 0 -4
-4 -4 -10z"/>
<path d="M736 235 c4 -8 8 -15 10 -15 2 0 4 7 4 15 0 8 -4 15 -10 15 -5 0 -7
-7 -4 -15z"/>
<path d="M201 231 c-10 -6 -9 -10 4 -15 9 -3 13 -10 10 -16 -3 -5 -1 -10 4
-10 6 0 10 9 8 20 -4 26 -10 31 -26 21z"/>
<path d="M2287 224 c-3 -4 -2 -15 4 -26 5 -10 7 -24 3 -30 -4 -6 -3 -8 4 -4
13 8 11 46 -3 46 -5 0 -3 5 5 10 8 5 10 10 4 10 -6 0 -14 -3 -17 -6z"/>
<path d="M174 194 c1 -8 6 -17 11 -21 4 -4 5 -2 1 5 -4 6 -2 12 3 12 6 0 11 4
11 8 0 5 -6 9 -14 9 -7 0 -13 -6 -12 -13z"/>
<path d="M1715 180 c3 -5 8 -10 11 -10 2 0 4 5 4 10 0 6 -5 10 -11 10 -5 0 -7
-4 -4 -10z"/>
</g>
</svg>
